<?xml version="1.0" encoding="UTF-8"?>
<mxfile host="app.diagrams.net" modified="2025-07-26T10:00:00.000Z" agent="5.0" etag="v1.0" version="24.7.6">
  <diagram name="AWS Lambda Services Detail" id="lambda-services">
    <mxGraphModel dx="1422" dy="794" grid="1" gridSize="10" guides="1" tooltips="1" connect="1" arrows="1" fold="1" page="1" pageScale="1" pageWidth="1654" pageHeight="1169" math="0" shadow="0">
      <root>
        <mxCell id="0"/>
        <mxCell id="1" parent="0"/>
        
        <mxCell id="title" value="Vehicle Tracking - Lambda Services Architecture" style="text;html=1;strokeColor=none;fillColor=none;align=center;verticalAlign=middle;whiteSpace=wrap;rounded=0;fontSize=18;fontStyle=1;" vertex="1" parent="1">
          <mxGeometry x="500" y="20" width="500" height="30" as="geometry"/>
        </mxCell>
        
        <mxCell id="internet" value="Internet" style="outlineConnect=0;dashed=0;verticalLabelPosition=bottom;verticalAlign=top;align=center;html=1;shape=mxgraph.aws4.internet_alt2;fillColor=#232F3E;gradientColor=none;" vertex="1" parent="1">
          <mxGeometry x="80" y="80" width="60" height="60" as="geometry"/>
        </mxCell>
        
        <mxCell id="cloudfront" value="CloudFront" style="outlineConnect=0;dashed=0;verticalLabelPosition=bottom;verticalAlign=top;align=center;html=1;shape=mxgraph.aws4.cloudfront;fillColor=#F58534;gradientColor=none;" vertex="1" parent="1">
          <mxGeometry x="200" y="80" width="60" height="60" as="geometry"/>
        </mxCell>
        
        <mxCell id="api-gateway" value="API Gateway" style="outlineConnect=0;dashed=0;verticalLabelPosition=bottom;verticalAlign=top;align=center;html=1;shape=mxgraph.aws4.api_gateway;fillColor=#F58534;gradientColor=none;" vertex="1" parent="1">
          <mxGeometry x="320" y="80" width="60" height="60" as="geometry"/>
        </mxCell>
        
        <mxCell id="vpc" value="VPC - Lambda Functions Layer" style="points=[[0,0],[0.25,0],[0.5,0],[0.75,0],[1,0],[1,0.25],[1,0.5],[1,0.75],[1,1],[0.75,1],[0.5,1],[0.25,1],[0,1],[0,0.75],[0,0.5],[0,0.25]];outlineConnect=0;gradientColor=none;html=1;whiteSpace=wrap;fontSize=14;fontStyle=1;container=1;pointerEvents=0;collapsible=0;recursiveResize=0;shape=mxgraph.aws4.group;grIcon=mxgraph.aws4.group_vpc;strokeColor=#248814;fillColor=none;verticalAlign=top;align=left;spacingLeft=30;fontColor=#248814;dashed=0;" vertex="1" parent="1">
          <mxGeometry x="460" y="60" width="1100" height="650" as="geometry"/>
        </mxCell>
        
        <!-- Core Lambda Functions -->
        <mxCell id="core-lambdas" value="Core Lambda Functions" style="points=[[0,0],[0.25,0],[0.5,0],[0.75,0],[1,0],[1,0.25],[1,0.5],[1,0.75],[1,1],[0.75,1],[0.5,1],[0.25,1],[0,1],[0,0.75],[0,0.5],[0,0.25]];outlineConnect=0;gradientColor=none;html=1;whiteSpace=wrap;fontSize=12;fontStyle=1;container=1;pointerEvents=0;collapsible=0;recursiveResize=0;shape=mxgraph.aws4.group;grIcon=mxgraph.aws4.group_security_group;strokeColor=#147EBA;fillColor=#E6F2F8;verticalAlign=top;align=left;spacingLeft=30;fontColor=#147EBA;dashed=0;" vertex="1" parent="1">
          <mxGeometry x="480" y="120" width="520" height="200" as="geometry"/>
        </mxCell>
        
        <mxCell id="vehicle-mgmt" value="Vehicle Management" style="outlineConnect=0;dashed=0;verticalLabelPosition=bottom;verticalAlign=top;align=center;html=1;shape=mxgraph.aws4.lambda_function;fillColor=#F58534;gradientColor=none;" vertex="1" parent="1">
          <mxGeometry x="500" y="160" width="50" height="50" as="geometry"/>
        </mxCell>
        
        <mxCell id="telemetry-api" value="Telemetry API" style="outlineConnect=0;dashed=0;verticalLabelPosition=bottom;verticalAlign=top;align=center;html=1;shape=mxgraph.aws4.lambda_function;fillColor=#F58534;gradientColor=none;" vertex="1" parent="1">
          <mxGeometry x="580" y="160" width="50" height="50" as="geometry"/>
        </mxCell>
        
        <mxCell id="fleet-dashboard" value="Fleet Dashboard" style="outlineConnect=0;dashed=0;verticalLabelPosition=bottom;verticalAlign=top;align=center;html=1;shape=mxgraph.aws4.lambda_function;fillColor=#F58534;gradientColor=none;" vertex="1" parent="1">
          <mxGeometry x="660" y="160" width="50" height="50" as="geometry"/>
        </mxCell>
        
        <mxCell id="notifications-api" value="Notifications API" style="outlineConnect=0;dashed=0;verticalLabelPosition=bottom;verticalAlign=top;align=center;html=1;shape=mxgraph.aws4.lambda_function;fillColor=#F58534;gradientColor=none;" vertex="1" parent="1">
          <mxGeometry x="740" y="160" width="50" height="50" as="geometry"/>
        </mxCell>
        
        <mxCell id="reports-api" value="Reports API" style="outlineConnect=0;dashed=0;verticalLabelPosition=bottom;verticalAlign=top;align=center;html=1;shape=mxgraph.aws4.lambda_function;fillColor=#F58534;gradientColor=none;" vertex="1" parent="1">
          <mxGeometry x="820" y="160" width="50" height="50" as="geometry"/>
        </mxCell>
        
        <mxCell id="video-processor" value="Video Processor" style="outlineConnect=0;dashed=0;verticalLabelPosition=bottom;verticalAlign=top;align=center;html=1;shape=mxgraph.aws4.lambda_function;fillColor=#F58534;gradientColor=none;" vertex="1" parent="1">
          <mxGeometry x="500" y="240" width="50" height="50" as="geometry"/>
        </mxCell>
        
        <mxCell id="panic-processor" value="Panic Processor" style="outlineConnect=0;dashed=0;verticalLabelPosition=bottom;verticalAlign=top;align=center;html=1;shape=mxgraph.aws4.lambda_function;fillColor=#F58534;gradientColor=none;" vertex="1" parent="1">
          <mxGeometry x="580" y="240" width="50" height="50" as="geometry"/>
        </mxCell>
        
        <mxCell id="telemetry-processor" value="Telemetry Processor" style="outlineConnect=0;dashed=0;verticalLabelPosition=bottom;verticalAlign=top;align=center;html=1;shape=mxgraph.aws4.lambda_function;fillColor=#F58534;gradientColor=none;" vertex="1" parent="1">
          <mxGeometry x="660" y="240" width="50" height="50" as="geometry"/>
        </mxCell>
        
        <!-- Sales Lambda Functions -->
        <mxCell id="sales-lambdas" value="Sales Module Lambda Functions" style="points=[[0,0],[0.25,0],[0.5,0],[0.75,0],[1,0],[1,0.25],[1,0.5],[1,0.75],[1,1],[0.75,1],[0.5,1],[0.25,1],[0,1],[0,0.75],[0,0.5],[0,0.25]];outlineConnect=0;gradientColor=none;html=1;whiteSpace=wrap;fontSize=12;fontStyle=1;container=1;pointerEvents=0;collapsible=0;recursiveResize=0;shape=mxgraph.aws4.group;grIcon=mxgraph.aws4.group_security_group;strokeColor=#7AA116;fillColor=#F2F6E8;verticalAlign=top;align=left;spacingLeft=30;fontColor=#7AA116;dashed=0;" vertex="1" parent="1">
          <mxGeometry x="480" y="340" width="520" height="120" as="geometry"/>
        </mxCell>
        
        <mxCell id="sales-clients-api" value="Sales Clients API" style="outlineConnect=0;dashed=0;verticalLabelPosition=bottom;verticalAlign=top;align=center;html=1;shape=mxgraph.aws4.lambda_function;fillColor=#7AA116;gradientColor=none;" vertex="1" parent="1">
          <mxGeometry x="500" y="380" width="50" height="50" as="geometry"/>
        </mxCell>
        
        <mxCell id="sales-inventory-api" value="Sales Inventory API" style="outlineConnect=0;dashed=0;verticalLabelPosition=bottom;verticalAlign=top;align=center;html=1;shape=mxgraph.aws4.lambda_function;fillColor=#7AA116;gradientColor=none;" vertex="1" parent="1">
          <mxGeometry x="580" y="380" width="50" height="50" as="geometry"/>
        </mxCell>
        
        <mxCell id="sales-contracts-api" value="Sales Contracts API" style="outlineConnect=0;dashed=0;verticalLabelPosition=bottom;verticalAlign=top;align=center;html=1;shape=mxgraph.aws4.lambda_function;fillColor=#7AA116;gradientColor=none;" vertex="1" parent="1">
          <mxGeometry x="660" y="380" width="50" height="50" as="geometry"/>
        </mxCell>
        
        <mxCell id="sales-dashboard-api" value="Sales Dashboard API" style="outlineConnect=0;dashed=0;verticalLabelPosition=bottom;verticalAlign=top;align=center;html=1;shape=mxgraph.aws4.lambda_function;fillColor=#7AA116;gradientColor=none;" vertex="1" parent="1">
          <mxGeometry x="740" y="380" width="50" height="50" as="geometry"/>
        </mxCell>
        
        <!-- Data Services -->
        <mxCell id="data-services" value="Data Services" style="points=[[0,0],[0.25,0],[0.5,0],[0.75,0],[1,0],[1,0.25],[1,0.5],[1,0.75],[1,1],[0.75,1],[0.5,1],[0.25,1],[0,1],[0,0.75],[0,0.5],[0,0.25]];outlineConnect=0;gradientColor=none;html=1;whiteSpace=wrap;fontSize=12;fontStyle=1;container=1;pointerEvents=0;collapsible=0;recursiveResize=0;shape=mxgraph.aws4.group;grIcon=mxgraph.aws4.group_security_group;strokeColor=#C925D1;fillColor=#F8E6FF;verticalAlign=top;align=left;spacingLeft=30;fontColor=#C925D1;dashed=0;" vertex="1" parent="1">
          <mxGeometry x="480" y="480" width="520" height="120" as="geometry"/>
        </mxCell>
        
        <mxCell id="dynamodb" value="DynamoDB (13 Tables)" style="outlineConnect=0;dashed=0;verticalLabelPosition=bottom;verticalAlign=top;align=center;html=1;shape=mxgraph.aws4.dynamodb;fillColor=#C925D1;gradientColor=none;" vertex="1" parent="1">
          <mxGeometry x="500" y="520" width="60" height="60" as="geometry"/>
        </mxCell>
        
        <mxCell id="elasticache" value="ElastiCache Redis" style="outlineConnect=0;dashed=0;verticalLabelPosition=bottom;verticalAlign=top;align=center;html=1;shape=mxgraph.aws4.elasticache_for_redis;fillColor=#C925D1;gradientColor=none;" vertex="1" parent="1">
          <mxGeometry x="580" y="520" width="60" height="60" as="geometry"/>
        </mxCell>
        
        <mxCell id="s3" value="S3 Buckets (6)" style="outlineConnect=0;dashed=0;verticalLabelPosition=bottom;verticalAlign=top;align=center;html=1;shape=mxgraph.aws4.s3;fillColor=#7AA116;gradientColor=none;" vertex="1" parent="1">
          <mxGeometry x="660" y="520" width="60" height="60" as="geometry"/>
        </mxCell>
        
        <mxCell id="sns" value="SNS Topics" style="outlineConnect=0;dashed=0;verticalLabelPosition=bottom;verticalAlign=top;align=center;html=1;shape=mxgraph.aws4.sns;fillColor=#F58534;gradientColor=none;" vertex="1" parent="1">
          <mxGeometry x="740" y="520" width="60" height="60" as="geometry"/>
        </mxCell>
        
        <!-- External Services -->
        <mxCell id="external-services" value="External AWS Services" style="points=[[0,0],[0.25,0],[0.5,0],[0.75,0],[1,0],[1,0.25],[1,0.5],[1,0.75],[1,1],[0.75,1],[0.5,1],[0.25,1],[0,1],[0,0.75],[0,0.5],[0,0.25]];outlineConnect=0;gradientColor=none;html=1;whiteSpace=wrap;fontSize=12;fontStyle=1;container=1;pointerEvents=0;collapsible=0;recursiveResize=0;shape=mxgraph.aws4.group;grIcon=mxgraph.aws4.group_aws_cloud_alt;strokeColor=#232F3E;fillColor=none;verticalAlign=top;align=left;spacingLeft=30;fontColor=#232F3E;dashed=0;" vertex="1" parent="1">
          <mxGeometry x="1040" y="120" width="480" height="480" as="geometry"/>
        </mxCell>
        
        <mxCell id="cognito" value="Cognito User Pools" style="outlineConnect=0;dashed=0;verticalLabelPosition=bottom;verticalAlign=top;align=center;html=1;shape=mxgraph.aws4.cognito;fillColor=#F58534;gradientColor=none;" vertex="1" parent="1">
          <mxGeometry x="1070" y="160" width="60" height="60" as="geometry"/>
        </mxCell>
        
        <mxCell id="iot-core" value="IoT Core" style="outlineConnect=0;dashed=0;verticalLabelPosition=bottom;verticalAlign=top;align=center;html=1;shape=mxgraph.aws4.iot_core;fillColor=#7AA116;gradientColor=none;" vertex="1" parent="1">
          <mxGeometry x="1160" y="160" width="60" height="60" as="geometry"/>
        </mxCell>
        
        <mxCell id="kinesis" value="Kinesis Streams" style="outlineConnect=0;dashed=0;verticalLabelPosition=bottom;verticalAlign=top;align=center;html=1;shape=mxgraph.aws4.kinesis_data_streams;fillColor=#8C4FFF;gradientColor=none;" vertex="1" parent="1">
          <mxGeometry x="1250" y="160" width="60" height="60" as="geometry"/>
        </mxCell>
        
        <mxCell id="cloudwatch" value="CloudWatch" style="outlineConnect=0;dashed=0;verticalLabelPosition=bottom;verticalAlign=top;align=center;html=1;shape=mxgraph.aws4.cloudwatch_2;fillColor=#F58534;gradientColor=none;" vertex="1" parent="1">
          <mxGeometry x="1070" y="250" width="60" height="60" as="geometry"/>
        </mxCell>
        
        <mxCell id="rekognition" value="Rekognition" style="outlineConnect=0;dashed=0;verticalLabelPosition=bottom;verticalAlign=top;align=center;html=1;shape=mxgraph.aws4.rekognition;fillColor=#01A88D;gradientColor=none;" vertex="1" parent="1">
          <mxGeometry x="1160" y="250" width="60" height="60" as="geometry"/>
        </mxCell>
        
        <!-- Lambda Function Details -->
        <mxCell id="lambda-details" value="Lambda Functions Details" style="rounded=1;whiteSpace=wrap;html=1;fillColor=#FFF8E1;strokeColor=#FFC107;verticalAlign=top;fontSize=14;fontStyle=1;" vertex="1" parent="1">
          <mxGeometry x="50" y="180" width="350" height="520" as="geometry"/>
        </mxCell>
        
        <mxCell id="core-functions-title" value="🔧 Core Functions (8)" style="text;html=1;strokeColor=none;fillColor=none;align=left;verticalAlign=middle;whiteSpace=wrap;rounded=0;fontSize=12;fontStyle=1;fontColor=#147EBA;" vertex="1" parent="1">
          <mxGeometry x="70" y="210" width="200" height="20" as="geometry"/>
        </mxCell>
        
        <mxCell id="core-functions-text" value="• Vehicle Management&#xa;  - CRUD operations for vehicles&#xa;  - Status updates and tracking&#xa;&#xa;• Telemetry API&#xa;  - Real-time data processing&#xa;  - GPS and sensor data handling&#xa;&#xa;• Fleet Dashboard&#xa;  - KPIs and metrics calculation&#xa;  - Real-time fleet overview&#xa;&#xa;• Notifications API&#xa;  - Multi-channel alerts (SMS/Email)&#xa;  - Emergency notifications&#xa;&#xa;• Reports API&#xa;  - Automated report generation&#xa;  - Custom analytics&#xa;&#xa;• Video Processor&#xa;  - Video stream handling&#xa;  - Frame extraction for AI&#xa;&#xa;• Panic Processor&#xa;  - Emergency response system&#xa;  - Immediate alert dispatch&#xa;&#xa;• Telemetry Processor&#xa;  - Kinesis stream processing&#xa;  - Hot/Warm/Cold data routing" style="text;html=1;strokeColor=none;fillColor=none;align=left;verticalAlign=top;whiteSpace=wrap;rounded=0;fontSize=10;" vertex="1" parent="1">
          <mxGeometry x="70" y="235" width="320" height="200" as="geometry"/>
        </mxCell>
        
        <mxCell id="sales-functions-title" value="💼 Sales Functions (4)" style="text;html=1;strokeColor=none;fillColor=none;align=left;verticalAlign=middle;whiteSpace=wrap;rounded=0;fontSize=12;fontStyle=1;fontColor=#7AA116;" vertex="1" parent="1">
          <mxGeometry x="70" y="450" width="200" height="20" as="geometry"/>
        </mxCell>
        
        <mxCell id="sales-functions-text" value="• Sales Clients API&#xa;  - CRM functionality&#xa;  - Client management and tracking&#xa;&#xa;• Sales Inventory API&#xa;  - Vehicle inventory management&#xa;  - Availability and pricing&#xa;&#xa;• Sales Contracts API&#xa;  - Contract lifecycle management&#xa;  - From quotation to renewal&#xa;&#xa;• Sales Dashboard API&#xa;  - Revenue analytics&#xa;  - Sales performance metrics&#xa;  - KPIs and reporting" style="text;html=1;strokeColor=none;fillColor=none;align=left;verticalAlign=top;whiteSpace=wrap;rounded=0;fontSize=10;" vertex="1" parent="1">
          <mxGeometry x="70" y="475" width="320" height="120" as="geometry"/>
        </mxCell>
        
        <mxCell id="performance-title" value="⚡ Performance Metrics" style="text;html=1;strokeColor=none;fillColor=none;align=left;verticalAlign=middle;whiteSpace=wrap;rounded=0;fontSize=12;fontStyle=1;fontColor=#F58534;" vertex="1" parent="1">
          <mxGeometry x="70" y="610" width="200" height="20" as="geometry"/>
        </mxCell>
        
        <mxCell id="performance-text" value="• Memory: 128-256 MB per function&#xa;• Timeout: 30-300 seconds&#xa;• Runtime: Python 3.9&#xa;• Concurrent executions: Auto-scaling&#xa;• Cold start: <1 second&#xa;• Average duration: <200ms&#xa;• Error rate: <0.1%&#xa;• Cost: ~$10/month for all functions" style="text;html=1;strokeColor=none;fillColor=none;align=left;verticalAlign=top;whiteSpace=wrap;rounded=0;fontSize=10;" vertex="1" parent="1">
          <mxGeometry x="70" y="635" width="320" height="60" as="geometry"/>
        </mxCell>
        
        <!-- Connection Arrows -->
        <mxCell id="arrow1" style="edgeStyle=orthogonalEdgeStyle;rounded=0;orthogonalLoop=1;jettySize=auto;html=1;strokeWidth=2;strokeColor=#232F3E;" edge="1" parent="1" source="internet" target="cloudfront">
          <mxGeometry relative="1" as="geometry"/>
        </mxCell>
        
        <mxCell id="arrow2" style="edgeStyle=orthogonalEdgeStyle;rounded=0;orthogonalLoop=1;jettySize=auto;html=1;strokeWidth=2;strokeColor=#F58534;" edge="1" parent="1" source="cloudfront" target="api-gateway">
          <mxGeometry relative="1" as="geometry"/>
        </mxCell>
        
        <mxCell id="arrow3" style="edgeStyle=orthogonalEdgeStyle;rounded=0;orthogonalLoop=1;jettySize=auto;html=1;strokeWidth=2;strokeColor=#F58534;" edge="1" parent="1" source="api-gateway" target="vehicle-mgmt">
          <mxGeometry relative="1" as="geometry"/>
        </mxCell>
        
        <mxCell id="arrow4" style="edgeStyle=orthogonalEdgeStyle;rounded=0;orthogonalLoop=1;jettySize=auto;html=1;strokeWidth=2;strokeColor=#F58534;" edge="1" parent="1" source="api-gateway" target="telemetry-api">
          <mxGeometry relative="1" as="geometry"/>
        </mxCell>
        
        <mxCell id="arrow5" style="edgeStyle=orthogonalEdgeStyle;rounded=0;orthogonalLoop=1;jettySize=auto;html=1;strokeWidth=2;strokeColor=#7AA116;" edge="1" parent="1" source="api-gateway" target="sales-clients-api">
          <mxGeometry relative="1" as="geometry"/>
        </mxCell>
        
        <mxCell id="arrow6" style="edgeStyle=orthogonalEdgeStyle;rounded=0;orthogonalLoop=1;jettySize=auto;html=1;strokeWidth=2;strokeColor=#C925D1;" edge="1" parent="1" source="vehicle-mgmt" target="dynamodb">
          <mxGeometry relative="1" as="geometry"/>
        </mxCell>
        
        <mxCell id="arrow7" style="edgeStyle=orthogonalEdgeStyle;rounded=0;orthogonalLoop=1;jettySize=auto;html=1;strokeWidth=2;strokeColor=#C925D1;" edge="1" parent="1" source="telemetry-api" target="elasticache">
          <mxGeometry relative="1" as="geometry"/>
        </mxCell>
        
        <mxCell id="arrow8" style="edgeStyle=orthogonalEdgeStyle;rounded=0;orthogonalLoop=1;jettySize=auto;html=1;strokeWidth=2;strokeColor=#7AA116;" edge="1" parent="1" source="sales-clients-api" target="dynamodb">
          <mxGeometry relative="1" as="geometry"/>
        </mxCell>
        
        <mxCell id="arrow9" style="edgeStyle=orthogonalEdgeStyle;rounded=0;orthogonalLoop=1;jettySize=auto;html=1;strokeWidth=2;strokeColor=#7AA116;" edge="1" parent="1" source="video-processor" target="s3">
          <mxGeometry relative="1" as="geometry"/>
        </mxCell>
        
        <mxCell id="arrow10" style="edgeStyle=orthogonalEdgeStyle;rounded=0;orthogonalLoop=1;jettySize=auto;html=1;strokeWidth=2;strokeColor=#F58534;" edge="1" parent="1" source="panic-processor" target="sns">
          <mxGeometry relative="1" as="geometry"/>
        </mxCell>
        
        <mxCell id="arrow11" style="edgeStyle=orthogonalEdgeStyle;rounded=0;orthogonalLoop=1;jettySize=auto;html=1;strokeWidth=2;strokeColor=#8C4FFF;" edge="1" parent="1" source="kinesis" target="telemetry-processor">
          <mxGeometry relative="1" as="geometry"/>
        </mxCell>
        
        <mxCell id="arrow12" style="edgeStyle=orthogonalEdgeStyle;rounded=0;orthogonalLoop=1;jettySize=auto;html=1;strokeWidth=2;strokeColor=#01A88D;" edge="1" parent="1" source="video-processor" target="rekognition">
          <mxGeometry relative="1" as="geometry"/>
        </mxCell>
        
        <!-- Labels -->
        <mxCell id="api-label" value="REST API Calls" style="text;html=1;strokeColor=none;fillColor=none;align=center;verticalAlign=middle;whiteSpace=wrap;rounded=0;fontSize=9;fontColor=#F58534;fontStyle=2;" vertex="1" parent="1">
          <mxGeometry x="380" y="60" width="70" height="15" as="geometry"/>
        </mxCell>
        
        <mxCell id="data-label" value="Database Operations" style="text;html=1;strokeColor=none;fillColor=none;align=center;verticalAlign=middle;whiteSpace=wrap;rounded=0;fontSize=9;fontColor=#C925D1;fontStyle=2;" vertex="1" parent="1">
          <mxGeometry x="520" y="460" width="90" height="15" as="geometry"/>
        </mxCell>
        
        <mxCell id="stream-label" value="Stream Processing" style="text;html=1;strokeColor=none;fillColor=none;align=center;verticalAlign=middle;whiteSpace=wrap;rounded=0;fontSize=9;fontColor=#8C4FFF;fontStyle=2;" vertex="1" parent="1">
          <mxGeometry x="1150" y="140" width="80" height="15" as="geometry"/>
        </mxCell>
        
        <mxCell id="ai-label" value="AI Processing" style="text;html=1;strokeColor=none;fillColor=none;align=center;verticalAlign=middle;whiteSpace=wrap;rounded=0;fontSize=9;fontColor=#01A88D;fontStyle=2;" vertex="1" parent="1">
          <mxGeometry x="1000" y="280" width="70" height="15" as="geometry"/>
        </mxCell>
        
      </root>
    </mxGraphModel>
  </diagram>
</mxfile>
